<svg width="107" height="109" xmlns="http://www.w3.org/2000/svg" xmlns:xlink="http://www.w3.org/1999/xlink" xml:space="preserve" overflow="hidden"><defs><clipPath id="clip0"><rect x="729" y="96" width="107" height="109"/></clipPath><clipPath id="clip1"><rect x="730" y="97" width="106" height="108"/></clipPath><clipPath id="clip2"><rect x="730" y="97" width="106" height="108"/></clipPath><clipPath id="clip3"><rect x="730" y="97" width="106" height="108"/></clipPath></defs><g clip-path="url(#clip0)" transform="translate(-729 -96)"><g clip-path="url(#clip1)"><g clip-path="url(#clip2)"><g clip-path="url(#clip3)"><path d="M78.48 52.2 78.48 52.308 78.48 52.452 78.48 52.56 78.48 52.668 78.516 52.812 78.516 52.92 78.516 53.028 78.552 53.172 78.552 53.28 78.588 53.388 78.624 53.532 78.624 53.64 78.66 53.784 78.696 53.892 78.732 54.036 78.732 54.18 78.768 54.288 78.804 54.432 78.84 54.576 78.876 54.684 78.948 54.828 78.984 54.972 79.02 55.116 79.056 55.26 79.092 55.404 79.164 55.548 79.2 55.728 79.236 55.872 79.308 56.016 79.344 56.16 79.416 56.34 79.452 56.484 79.524 56.664 79.56 56.844 79.632 57.024 79.704 57.168 79.74 57.348 79.812 57.528 79.884 57.708 79.92 57.924 79.992 58.104 80.028 58.284 80.1 58.5 80.172 58.68 80.208 58.896 80.28 59.112 80.352 59.292 80.388 59.508 80.46 59.724 80.532 59.94 80.568 60.192 80.64 60.408 80.676 60.624 80.748 60.876 80.784 61.092 80.856 61.344 80.892 61.596 80.928 61.848 81 62.1 81.036 62.352 81.072 62.604 81.108 62.892 81.18 63.144 81.216 63.432 81.252 63.684 81.288 63.972 81.288 64.26 81.324 64.548 81.36 64.836 81.396 65.124 81.396 65.412 81.432 65.7 81.432 66.024 81.432 66.312 81.468 66.636 81.468 66.96 81.468 67.248 81.468 67.572 81.432 67.896 81.432 68.22 81.432 68.544 81.396 68.904 81.396 69.228 81.36 69.552 81.324 69.912 81.288 70.272 81.252 70.596 81.216 70.956 81.18 71.316 81.108 71.676 81.036 72 81 72.36 80.928 72.756 80.856 73.116 80.784 73.476 80.676 73.836 80.604 74.196 80.496 74.592 80.388 74.952 80.28 75.348 80.172 75.708 80.064 76.104 79.92 76.464 79.812 76.86 79.668 77.256 79.524 77.616 79.38 78.012 79.236 78.408 79.056 78.768 78.912 79.164 78.732 79.56 78.552 79.956 78.372 80.316 78.156 80.712 77.976 81.108 77.76 81.504 77.544 81.9 77.328 82.26 77.112 82.656 76.86 83.052 76.644 83.448 76.392 83.808 76.14 84.204 75.888 84.6 75.6 84.96 75.348 85.356 75.06 85.716 74.772 86.112 74.484 86.472 74.16 86.868 73.872 87.228 73.548 87.588 73.224 87.948 72.9 88.308 72.576 88.704 72.216 89.028 71.892 89.388 71.532 89.748 71.172 90.108 70.776 90.432 70.416 90.792 70.02 91.116 69.624 91.476 69.228 91.8 68.832 92.124 68.436 92.448 68.004 92.772 67.572 93.06 67.176 93.384 66.708 93.672 66.276 93.996 65.844 94.284 65.376 94.572 64.908 94.86 64.44 95.148 63.972 95.4 63.504 95.688 63 95.94 62.532 96.192 62.028 96.444 61.524 96.696 61.02 96.912 60.516 97.164 60.012 97.38 59.472 97.596 58.932 97.812 58.428 97.992 57.888 98.208 57.348 98.388 56.772 98.568 56.232 98.748 55.692 98.892 55.116 99.072 54.54 99.216 54 99.36 53.424 99.504 52.848 99.612 52.272 99.756 51.696 99.864 51.084 99.972 50.508 100.044 49.896 100.152 49.32 100.224 48.708 100.296 48.132 100.368 47.52 100.404 46.908 100.44 46.296 100.476 45.684 100.512 45.072 100.512 44.46 100.548 43.848 100.548 43.236 100.512 42.624 100.512 41.976 100.476 41.364 100.44 40.752 100.404 40.104 100.332 39.492 100.26 38.88 100.188 38.232 100.116 37.62 100.008 37.008 99.9 36.36 99.792 35.748 99.684 35.136 99.54 34.524 99.396 33.876 99.252 33.264 99.108 32.652 98.928 32.04 98.748 31.428 98.568 30.816 98.352 30.204 98.172 29.592 97.956 28.98 97.704 28.368 97.488 27.756 97.236 27.18 96.984 26.568 96.732 25.992 96.444 25.38 96.156 24.804 95.868 24.228 95.58 23.652 95.256 23.076 94.932 22.5 94.608 21.924 94.284 21.348 93.924 20.808 93.564 20.232 93.204 19.692 92.844 19.152 92.448 18.612 92.088 18.072 91.692 17.568 91.26 17.028 90.864 16.524 90.432 16.02 90 15.516 89.568 15.012 89.136 14.508 88.668 14.04 88.2 13.536 87.732 13.068 87.264 12.6 86.796 12.168 86.292 11.7 85.788 11.268 85.284 10.836 84.78 10.404 84.276 9.972 83.736 9.576 83.232 9.144 82.692 8.748 82.152 8.352 81.576 7.992 81.036 7.632 80.46 7.236 79.92 6.876 79.344 6.552 78.768 6.192 78.192 5.868 77.58 5.544 77.004 5.256 76.392 4.932 75.816 4.644 75.204 4.356 74.592 4.068 73.98 3.816 73.368 3.564 72.756 3.312 72.108 3.06 71.496 2.844 70.848 2.628 70.236 2.412 69.588 2.196 68.94 2.016 68.292 1.836 67.644 1.656 66.996 1.512 66.348 1.332 65.7 1.224 65.052 1.08 64.404 0.936 63.756 0.828 63.108 0.72 62.424 0.648 61.776 0.576 61.128 0.504 60.444 0.432 59.796 0.36 59.148 0.324 58.464 0.288 57.816 0.288 57.168 0.252 56.484 0.252 55.836 0.252 55.188 0.288 54.504 0.288 53.856 0.324 53.208 0.396 52.56 0.432 51.912 0.504 51.264 0.576 50.616 0.648 49.968 0.756 49.32 0.864 48.672 0.972 48.024 1.08 47.412 1.224 46.764 1.368 46.152 1.512 45.504 1.656 44.892 1.836 44.28 2.016 43.668 2.196 43.056 2.376 42.444 2.592 41.832 2.772 41.22 2.988 40.644 3.24 40.068 3.456 39.456 3.708 38.88 3.96 38.304 4.212 37.728 4.464 37.188 4.752 36.612 5.04 36.072 5.328 35.496 5.616 34.956 5.94 34.416 6.228 33.912 6.552 33.372 6.876 32.868 7.2 32.328 7.524 31.824 7.884 31.32 8.244 30.852 8.604 30.348 8.964 29.88 9.324 29.412 9.684 28.944 10.08 28.476 10.476 28.008 10.836 27.576 11.232 27.144 11.664 26.712 12.06 26.28 12.456 25.848 12.888 25.452 13.284 25.056 13.716 24.66 14.148 24.264 14.58 23.868 15.012 23.508 15.444 23.148 15.912 22.788 16.344 22.428 16.812 22.104 17.244 21.78 17.712 21.456 18.18 21.132 18.648 20.808 19.08 20.52 19.548 20.232 20.016 19.944 20.52 19.656 20.988 19.404 21.456 19.116 21.924 18.864 22.392 18.648 22.896 18.396 23.364 18.18 23.832 17.928 24.336 17.712 24.804 17.532 25.308 17.316 25.776 17.136 26.28 16.956 26.748 16.776 27.252 16.596 27.72 16.452 28.188 16.308 28.692 16.164 29.16 16.02 29.664 15.876 30.132 15.768 30.6 15.66 31.104 15.552 31.572 15.444 32.04 15.336 32.544 15.264 33.012 15.192 33.48 15.12 33.948 15.048 34.416 14.976 34.884 14.94 35.352 14.904 35.82 14.868 36.288 14.832 36.72 14.796 37.188 14.796 37.656 14.76 38.088 14.76 38.556 14.76 38.988 14.796 39.42 14.796 39.852 14.796 40.284 14.832 40.716 14.868 41.148 14.904 41.58 14.94 42.012 14.976 42.408 15.048 42.84 15.084 43.236 15.156 43.668 15.228 44.064 15.3 44.46 15.372 44.856 15.444 45.252 15.552 45.612 15.624 46.008 15.732 46.368 15.804 46.764 15.912 47.124 16.02 47.484 16.128 47.844 16.236 48.204 16.38 48.564 16.488 48.888 16.596 49.248 16.74 49.572 16.848 49.896 16.992 50.22 17.136 50.544 17.28 50.868 17.424 51.192 17.568 51.516 17.712 51.804 17.856 52.092 18 52.416 18.144 52.704 18.288 52.992 18.468 53.244 18.612 53.532 18.756 53.82 18.936 54.072 19.08 54.324 19.26 54.612 19.404 54.864 19.584 55.08 19.764 55.332 19.908 55.584 20.088 55.8 20.232 56.052 20.412 56.268 20.592 56.484 20.736 56.7 20.916 56.916 21.096 57.132 21.24 57.348 21.42 57.528 21.6 57.744 21.744 57.924 21.924 58.14 22.104 58.32 22.248 58.5 22.428 58.68 22.608 58.86 22.752 59.004 22.932 59.184 23.076 59.364 23.256 59.508 23.4 59.652 23.544 59.832 23.724 59.976 23.868 60.12 24.012 60.264 24.192 60.408 24.336 60.552 24.48 60.696 24.624 60.804 24.768 60.948 24.912 61.056 25.056 61.2 25.2 61.308 25.344 61.452 25.452 61.56 25.596 61.668 25.74 61.776 25.848 61.92 25.992 62.028 26.136 62.136 26.244 62.244 26.352 62.352 26.496 62.46 26.604 62.568 26.712 62.64 26.82 62.748 26.928 62.856 27.036 62.964 27.144 63.072 27.252 63.144 27.36 63.252 27.468 63.36 27.54 63.468 27.648 63.54 27.72 63.648 27.828 63.756 27.9 63.828 28.008 63.936 28.08 64.044 28.152 64.116 28.224 64.224 28.296 64.332 28.368 64.404 28.44 64.512 28.512 64.62 28.584 64.728 28.656 64.8 28.728 64.908 28.764 65.016 28.836 65.124 28.908 65.232 28.944 65.34 29.016 65.448 29.052 65.556 29.124 65.664 29.16 65.772 29.196 65.88 29.268 65.988 29.304 66.132 29.34 66.24 29.376 66.348 29.412 66.492 29.484 66.6 29.52 66.744 29.556 66.852 29.592 66.996 29.628 67.14 29.664 67.284 29.7 67.392 29.736 67.536 29.772 67.68 29.808 67.824 29.844 67.968 29.844 68.148 29.88 68.292 29.916 68.436 29.952 68.616 29.988 68.76 30.024 68.94 30.06 69.084 30.096 69.264 30.132 69.444 30.168 69.624 30.204 69.804 30.24 69.984 30.276 70.164 30.312 70.344 30.348 70.524 30.384 70.74 30.42 70.92 30.492 71.136 30.528 71.316 30.564 71.532 30.636 71.712 30.672 71.928 30.708 72.144 30.78 72.36 30.852 72.576 30.888 72.792 30.96 73.044 31.032 73.26 31.068 73.476 31.14 73.728 31.212 73.944 31.284 74.196 31.392 74.412 31.464 74.664 31.536 74.916 31.644 75.168 31.716 75.384 31.824 75.636 31.896 75.888 32.004 76.14 32.112 76.428 32.22 76.68 32.328 76.932 32.436 77.184 32.58 77.472 32.688 77.724 32.832 77.976 32.94 78.264 33.084 78.516 33.228 78.804 33.372 79.092 33.516 79.344 33.66 79.632 33.84 79.884 33.984 80.172 34.164 80.46 34.344 80.748 34.524 81 34.704 81.288 34.884 81.576 35.1 81.864 35.28 82.152 35.496 82.404 35.712 82.692 35.928 82.98 36.144 83.268 36.36 83.556 36.576 83.808 36.828 84.096 37.08 84.384 37.332 84.672 37.584 84.924 37.836 85.212 38.088 85.5 38.376 85.752 38.664 86.04 38.916 86.292 39.204 86.58 39.528 86.832 39.816 87.12 40.104 87.372 40.428 87.624 40.752 87.876 41.076 88.128 41.4 88.38 41.724 88.632 42.084 88.884 42.408 89.136 42.768 89.388 43.128 89.64 43.488 89.856 43.848 90.108 44.244 90.324 44.604 90.54 45 90.756 45.396 90.972 45.792 91.188 46.188 91.404 46.584 91.62 47.016 91.8 47.448 92.016 47.844 92.196 48.276 92.376 48.708 92.556 49.176 92.736 49.608 92.916 50.04 93.06 50.508 93.24 50.976 93.384 51.444 93.528 51.912 93.672 52.38 93.816 52.848 93.96 53.316 94.068 53.82 94.176 54.324 94.284 54.792 94.392 55.296 94.5 55.8 94.608 56.304 94.68 56.808 94.752 57.348 94.824 57.852 94.896 58.356 94.968 58.896 95.004 59.436 95.04 59.94 95.076 60.48 95.112 61.02 95.148 61.56 95.148 62.1 95.148 62.64 95.148 63.18 95.148 63.756 95.112 64.296 95.076 64.836 95.04 65.412 95.004 65.952 94.968 66.528 94.896 67.068 94.824 67.644 94.752 68.184 94.68 68.76 94.572 69.336 94.464 69.876 94.356 70.452 94.248 71.028 94.104 71.568 93.96 72.144 93.816 72.72 93.672 73.26 93.528 73.836 93.348 74.412 93.168 74.952 92.988 75.528 92.772 76.068 92.556 76.644 92.34 77.184 92.124 77.76 91.908 78.3 91.656 78.876 91.404 79.416 91.152 79.956 90.864 80.496 90.576 81.036 90.324 81.576 90 82.116 89.712 82.656 89.388 83.196 89.064 83.736 88.74 84.24 88.416 84.78 88.056 85.284 87.696 85.788 87.336 86.328 86.976 86.832 86.58 87.3 86.22 87.804 85.824 88.308 85.392 88.776 84.996 89.28 84.564 89.748 84.132 90.216 83.7 90.684 83.268 91.152 82.8 91.62 82.332 92.052 81.9 92.484 81.396 92.916 80.928 93.348 80.424 93.78 79.956 94.212 79.452 94.608 78.948 95.004 78.408 95.4 77.904 95.796 77.364 96.192 76.824 96.552 76.284 96.912 75.744 97.272 75.168 97.632 74.628 97.992 74.052 98.316 73.476 98.64 72.9 98.964 72.324 99.288 71.748 99.576 71.136 99.864 70.56 100.152 69.948 100.44 69.336 100.692 68.724 100.98 68.112 101.196 67.5 101.448 66.852 101.7 66.24 101.916 65.592 102.132 64.98 102.348 64.332 102.528 63.684 102.708 63.036 102.888 62.388 103.068 61.74 103.212 61.092 103.356 60.444 103.5 59.76 103.644 59.112 103.752 58.464 103.86 57.78 103.968 57.132 104.04 56.448 104.112 55.764 104.184 55.116 104.256 54.432 104.292 53.784 104.328 53.1 104.364 52.416 104.4 51.732 104.4 51.084 104.4 50.4 104.4 49.716 104.364 49.068 104.328 48.384 104.292 47.7 104.256 47.052 104.184 46.368 104.112 45.72 104.04 45.036 103.932 44.388 103.824 43.704 103.716 43.056 103.608 42.408 103.464 41.724 103.32 41.076 103.176 40.428 103.032 39.78 102.852 39.132 102.672 38.484 102.492 37.872 102.276 37.224 102.096 36.612 101.88 35.964 101.628 35.352 101.412 34.74 101.16 34.092 100.908 33.516 100.656 32.904 100.368 32.292 100.116 31.68 99.828 31.104 99.504 30.528 99.216 29.916 98.892 29.34 98.568 28.8 98.244 28.224 97.92 27.648 97.56 27.108 97.2 26.568 96.84 26.028 96.48 25.488 96.12 24.948 95.724 24.444 95.328 23.94 94.932 23.4 94.536 22.932 94.104 22.428 93.708 21.924 93.276 21.456 92.844 20.988 92.412 20.52 91.944 20.052 91.512 19.62 91.044 19.152 90.576 18.72 90.144 18.288 89.64 17.892 89.172 17.46 88.704 17.064 88.2 16.668 87.696 16.308 87.228 15.912 86.724 15.552 86.22 15.192 85.68 14.832 85.176 14.472 84.672 14.148 84.132 13.824 83.628 13.5 83.088 13.176 82.548 12.888 82.008 12.6 81.468 12.312 80.928 12.024 80.388 11.772 79.848 11.52 79.308 11.268 78.732 11.016 78.192 10.8 77.652 10.548 77.076 10.368 76.536 10.152 75.96 9.936 75.42 9.756 74.844 9.576 74.268 9.396 73.728 9.252 73.152 9.108 72.576 8.964 72.036 8.82 71.46 8.712 70.884 8.568 70.344 8.46 69.768 8.352 69.192 8.28 68.652 8.208 68.076 8.1 67.536 8.064 66.96 7.992 66.42 7.956 65.844 7.884 65.304 7.884 64.728 7.848 64.188 7.812 63.648 7.812 63.072 7.812 62.532 7.812 61.992 7.848 61.452 7.848 60.912 7.884 60.372 7.92 59.832 7.956 59.328 8.028 58.788 8.064 58.284 8.136 57.744 8.208 57.24 8.28 56.7 8.388 56.196 8.46 55.692 8.568 55.188 8.676 54.684 8.784 54.216 8.928 53.712 9.036 53.244 9.18 52.74 9.324 52.272 9.468 51.804 9.612 51.336 9.756 50.868 9.936 50.4 10.08 49.968 10.26 49.5 10.44 49.068 10.62 48.636 10.8 48.204 10.98 47.772 11.196 47.34 11.376 46.944 11.592 46.512 11.808 46.116 12.024 45.72 12.24 45.324 12.456 44.928 12.672 44.532 12.924 44.172 13.14 43.776 13.392 43.416 13.644 43.056 13.86 42.696 14.112 42.336 14.364 42.012 14.616 41.652 14.868 41.328 15.12 41.004 15.372 40.68 15.66 40.356 15.912 40.068 16.164 39.744 16.452 39.456 16.704 39.168 16.992 38.88 17.244 38.592 17.532 38.304 17.82 38.052 18.072 37.764 18.36 37.512 18.648 37.26 18.9 37.008 19.188 36.792 19.476 36.54 19.764 36.324 20.052 36.108 20.304 35.856 20.592 35.64 20.88 35.46 21.168 35.244 21.456 35.064 21.708 34.848 21.996 34.668 22.284 34.488 22.572 34.308 22.824 34.128 23.112 33.948 23.4 33.804 23.652 33.66 23.94 33.48 24.228 33.336 24.48 33.192 24.768 33.048 25.02 32.904 25.308 32.796 25.56 32.652 25.812 32.544 26.1 32.436 26.352 32.292 26.604 32.184 26.856 32.076 27.108 32.004 27.36 31.896 27.612 31.788 27.864 31.716 28.116 31.608 28.332 31.536 28.584 31.428 28.836 31.356 29.052 31.284 29.304 31.212 29.52 31.14 29.736 31.068 29.988 30.996 30.204 30.96 30.42 30.888 30.636 30.816 30.852 30.78 31.068 30.708 31.284 30.672 31.464 30.6 31.68 30.564 31.896 30.528 32.076 30.456 32.292 30.42 32.472 30.384 32.652 30.348 32.832 30.312 33.012 30.276 33.192 30.24 33.372 30.204 33.552 30.168 33.732 30.132 33.912 30.096 34.056 30.06 34.236 30.024 34.38 29.988 34.56 29.952 34.704 29.916 34.848 29.88 34.992 29.844 35.136 29.808 35.316 29.772 35.424 29.736 35.568 29.736 35.712 29.7 35.856 29.664 36 29.628 36.108 29.592 36.252 29.556 36.36 29.484 36.504 29.448 36.612 29.412 36.756 29.376 36.864 29.34 36.972 29.304 37.08 29.232 37.224 29.196 37.332 29.16 37.44 29.088 37.548 29.052 37.656 29.016 37.764 28.944 37.872 28.872 37.944 28.836 38.052 28.764 38.16 28.692 38.268 28.656 38.376 28.584 38.448 28.512 38.556 28.44 38.664 28.368 38.772 28.296 38.844 28.224 38.952 28.152 39.06 28.044 39.132 27.972 39.24 27.9 39.348 27.792 39.42 27.72 39.528 27.612 39.636 27.54 39.708 27.432 39.816 27.324 39.924 27.216 40.032 27.144 40.104 27.036 40.212 26.928 40.32 26.82 40.428 26.676 40.536 26.568 40.644 26.46 40.752 26.352 40.86 26.208 40.968 26.1 41.076 25.956 41.184 25.848 41.292 25.704 41.436 25.56 41.544 25.452 41.652 25.308 41.796 25.164 41.904 25.02 42.048 24.876 42.192 24.732 42.3 24.588 42.444 24.444 42.588 24.3 42.732 24.156 42.876 23.976 43.02 23.832 43.164 23.688 43.344 23.508 43.488 23.364 43.632 23.22 43.812 23.04 43.992 22.896 44.136 22.716 44.316 22.572 44.496 22.392 44.676 22.212 44.856 22.068 45.072 21.888 45.252 21.744 45.468 21.564 45.648 21.384 45.864 21.24 46.08 21.06 46.296 20.88 46.512 20.736 46.728 20.556 46.944 20.376 47.196 20.232 47.412 20.052 47.664 19.872 47.916 19.728 48.168 19.548 48.42 19.368 48.672 19.224 48.924 19.044 49.212 18.9 49.464 18.756 49.752 18.576 50.04 18.432 50.328 18.252 50.616 18.108 50.904 17.964 51.228 17.82 51.516 17.676 51.84 17.532 52.164 17.388 52.452 17.244 52.776 17.1 53.136 16.956 53.46 16.848 53.784 16.704 54.144 16.596 54.468 16.452 54.828 16.344 55.188 16.236 55.548 16.128 55.908 16.02 56.268 15.912 56.664 15.804 57.024 15.696 57.42 15.624 57.816 15.516 58.212 15.444 58.572 15.372 59.004 15.264 59.4 15.192 59.796 15.156 60.192 15.084 60.624 15.012 61.056 14.976 61.452 14.94 61.884 14.904 62.316 14.868 62.748 14.832 63.18 14.796 63.612 14.796 64.08 14.76 64.512 14.76 64.944 14.76 65.412 14.796 65.88 14.796 66.312 14.796 66.78 14.832 67.248 14.868 67.716 14.904 68.184 14.94 68.652 15.012 69.12 15.048 69.588 15.12 70.056 15.192 70.524 15.264 70.992 15.372 71.496 15.444 71.964 15.552 72.432 15.66 72.936 15.804 73.404 15.912 73.872 16.056 74.376 16.164 74.844 16.308 75.348 16.488 75.816 16.632 76.32 16.812 76.788 16.992 77.292 17.172 77.76 17.352 78.264 17.568 78.732 17.784 79.2 18 79.704 18.216 80.172 18.432 80.64 18.684 81.144 18.936 81.612 19.188 82.08 19.44 82.548 19.728 83.016 19.98 83.484 20.268 83.952 20.592 84.42 20.88 84.888 21.204 85.356 21.528 85.788 21.852 86.256 22.176 86.688 22.5 87.156 22.86 87.588 23.22 88.02 23.58 88.452 23.976 88.884 24.336 89.316 24.732 89.748 25.128 90.18 25.524 90.576 25.956 90.972 26.352 91.404 26.784 91.8 27.216 92.196 27.648 92.592 28.116 92.952 28.548 93.348 29.016 93.708 29.484 94.068 29.952 94.428 30.456 94.788 30.924 95.148 31.428 95.472 31.932 95.832 32.436 96.156 32.976 96.48 33.48 96.804 34.02 97.092 34.524 97.416 35.064 97.704 35.64 97.992 36.18 98.244 36.72 98.532 37.296 98.784 37.872 99.072 38.412 99.288 38.988 99.54 39.6 99.792 40.176 100.008 40.752 100.224 41.364 100.44 41.976 100.62 42.552 100.8 43.164 100.98 43.776 101.16 44.388 101.34 45.036 101.484 45.648 101.628 46.26 101.772 46.908 101.916 47.52 102.024 48.168 102.132 48.816 102.24 49.464 102.312 50.076 102.384 50.724 102.456 51.372 102.528 52.02 102.6 52.704 102.636 53.352 102.672 54 102.672 54.648 102.708 55.296 102.708 55.98 102.708 56.628 102.672 57.276 102.672 57.96 102.636 58.608 102.564 59.256 102.528 59.94 102.456 60.588 102.384 61.236 102.312 61.92 102.204 62.568 102.096 63.216 101.988 63.9 101.844 64.548 101.736 65.196 101.592 65.844 101.412 66.492 101.268 67.14 101.088 67.788 100.908 68.436 100.728 69.084 100.512 69.732 100.296 70.344 100.08 70.992 99.828 71.604 99.612 72.252 99.36 72.864 99.108 73.476 98.82 74.124 98.532 74.736 98.244 75.312 97.956 75.924 97.668 76.536 97.344 77.112 97.02 77.724 96.696 78.3 96.336 78.876 96.012 79.452 95.652 80.028 95.256 80.604 94.896 81.144 94.5 81.72 94.104 82.26 93.708 82.8 93.312 83.34 92.916 83.844 92.484 84.384 92.052 84.888 91.62 85.392 91.152 85.896 90.72 86.4 90.252 86.904 89.784 87.372 89.316 87.84 88.848 88.308 88.344 88.776 87.84 89.208 87.336 89.676 86.832 90.108 86.328 90.54 85.824 90.936 85.284 91.368 84.78 91.764 84.24 92.16 83.7 92.556 83.16 92.916 82.584 93.276 82.044 93.636 81.468 93.996 80.928 94.356 80.352 94.68 79.776 95.004 79.2 95.328 78.624 95.616 78.048 95.94 77.436 96.228 76.86 96.48 76.284 96.768 75.672 97.02 75.06 97.272 74.484 97.524 73.872 97.776 73.26 97.992 72.648 98.208 72.036 98.388 71.424 98.604 70.812 98.784 70.2 98.964 69.552 99.144 68.94 99.288 68.328 99.432 67.716 99.576 67.068 99.72 66.456 99.828 65.844 99.936 65.196 100.044 64.584 100.116 63.972 100.224 63.324 100.296 62.712 100.368 62.1 100.404 61.452 100.44 60.84 100.476 60.228 100.512 59.616 100.512 59.004 100.548 58.392 100.548 57.744 100.512 57.132 100.512 56.556 100.476 55.944 100.44 55.332 100.404 54.72 100.332 54.108 100.296 53.532 100.224 52.92 100.116 52.344 100.044 51.732 99.936 51.156 99.828 50.58 99.72 50.004 99.612 49.428 99.468 48.852 99.324 48.276 99.18 47.736 99.036 47.16 98.892 46.62 98.712 46.044 98.532 45.504 98.352 44.964 98.172 44.424 97.956 43.92 97.74 43.38 97.56 42.876 97.344 42.336 97.092 41.832 96.876 41.328 96.624 40.824 96.372 40.32 96.12 39.852 95.868 39.348 95.616 38.88 95.364 38.412 95.076 37.944 94.788 37.476 94.5 37.044 94.212 36.576 93.924 36.144 93.636 35.712 93.312 35.28 93.024 34.848 92.7 34.452 92.376 34.056 92.052 33.624 91.728 33.228 91.404 32.868 91.044 32.472 90.72 32.112 90.396 31.716 90.036 31.356 89.676 30.996 89.316 30.672 88.956 30.312 88.596 29.988 88.236 29.664 87.876 29.34 87.516 29.016 87.156 28.728 86.796 28.404 86.4 28.116 86.04 27.828 85.644 27.576 85.284 27.288 84.888 27.036 84.528 26.784 84.132 26.532 83.736 26.28 83.34 26.028 82.98 25.812 82.584 25.596 82.188 25.344 81.792 25.164 81.432 24.948 81.036 24.732 80.64 24.552 80.244 24.372 79.848 24.192 79.488 24.012 79.092 23.868 78.696 23.688 78.3 23.544 77.94 23.4 77.544 23.256 77.148 23.112 76.788 23.004 76.392 22.86 76.032 22.752 75.636 22.644 75.276 22.536 74.88 22.428 74.52 22.356 74.124 22.248 73.764 22.176 73.404 22.104 73.044 22.032 72.684 21.96 72.288 21.888 71.928 21.852 71.604 21.78 71.244 21.744 70.884 21.708 70.524 21.672 70.2 21.636 69.84 21.6 69.516 21.564 69.156 21.564 68.832 21.528 68.508 21.528 68.148 21.492 67.824 21.492 67.5 21.492 67.212 21.492 66.888 21.492 66.564 21.528 66.276 21.528 65.952 21.528 65.664 21.564 65.34 21.6 65.052 21.6 64.764 21.636 64.476 21.672 64.188 21.708 63.9 21.744 63.648 21.78 63.36 21.816 63.072 21.852 62.82 21.888 62.568 21.924 62.316 21.996 62.064 22.032 61.812 22.068 61.56 22.14 61.308 22.176 61.056 22.248 60.84 22.284 60.588 22.356 60.372 22.392 60.12 22.464 59.904 22.5 59.688 22.572 59.472 22.644 59.256 22.68 59.04 22.752 58.86 22.824 58.644 22.86 58.464 22.932 58.248 23.004 58.068 23.04 57.888 23.112 57.672 23.148 57.492 23.22 57.312 23.292 57.132 23.328 56.988 23.4 56.808 23.436 56.628 23.508 56.484 23.544 56.304 23.616 56.16 23.652 55.98 23.724 55.836 23.76 55.692 23.832 55.512 23.868 55.368 23.904 55.224 23.94 55.08 24.012 54.936 24.048 54.828 24.084 54.684 24.12 54.54 24.156 54.396 24.192 54.252 24.228 54.144 24.264 54 24.264 53.892 24.3 53.748 24.336 53.64 24.372 53.496 24.372 53.388 24.408 53.244 24.408 53.136 24.444 53.028 24.444 52.884 24.444 52.776 24.48 52.668 24.48 52.524 24.48 52.416 24.48 52.308 24.48 52.164 24.48 52.056 24.48 51.948 24.48 51.804 24.444 51.696 24.444 51.588 24.444 51.444 24.408 51.336 24.408 51.228 24.408 51.084 24.372 50.976 24.336 50.832 24.336 50.724 24.3 50.58 24.264 50.472 24.228 50.328 24.192 50.22 24.156 50.076 24.12 49.932 24.084 49.824 24.048 49.68 24.012 49.536 23.976 49.392 23.94 49.248 23.904 49.104 23.832 48.96 23.796 48.816 23.76 48.672 23.688 48.492 23.652 48.348 23.58 48.204 23.544 48.024 23.472 47.88 23.436 47.7 23.364 47.52 23.328 47.34 23.256 47.196 23.184 47.016 23.148 46.836 23.076 46.656 23.004 46.44 22.968 46.26 22.896 46.08 22.86 45.864 22.788 45.684 22.716 45.468 22.68 45.252 22.608 45.036 22.536 44.82 22.5 44.604 22.428 44.388 22.392 44.172 22.32 43.956 22.248 43.704 22.212 43.488 22.14 43.236 22.104 42.984 22.068 42.768 21.996 42.516 21.96 42.264 21.924 41.976 21.888 41.724 21.816 41.472 21.78 41.184 21.744 40.932 21.708 40.644 21.672 40.392 21.636 40.104 21.636 39.816 21.6 39.528 21.564 39.24 21.564 38.916 21.528 38.628 21.528 38.304 21.528 38.016 21.492 37.692 21.492 37.404 21.492 37.08 21.492 36.756 21.528 36.432 21.528 36.108 21.528 35.784 21.564 35.424 21.564 35.1 21.6 34.776 21.636 34.416 21.672 34.092 21.708 33.732 21.744 33.372 21.816 33.012 21.852 32.652 21.924 32.292 21.996 31.932 22.068 31.572 22.14 31.212 22.212 30.852 22.284 30.492 22.392 30.096 22.5 29.736 22.572 29.376 22.68 28.98 22.788 28.62 22.932 28.224 23.04 27.864 23.184 27.468 23.328 27.072 23.472 26.712 23.616 26.316 23.76 25.92 23.94 25.524 24.084 25.164 24.264 24.768 24.444 24.372 24.624 23.976 24.84 23.616 25.02 23.22 25.236 22.824 25.452 22.428 25.668 22.032 25.884 21.672 26.136 21.276 26.388 20.88 26.604 20.484 26.856 20.124 27.144 19.728 27.396 19.368 27.684 18.972 27.972 18.576 28.26 18.216 28.548 17.856 28.836 17.46 29.16 17.1 29.484 16.74 29.808 16.38 30.132 15.984 30.456 15.624 30.816 15.264 31.14 14.94 31.5 14.58 31.896 14.22 32.256 13.896 32.616 13.536 33.012 13.212 33.408 12.852 33.804 12.528 34.2 12.204 34.632 11.88 35.028 11.592 35.46 11.268 35.892 10.944 36.324 10.656 36.756 10.368 37.224 10.044 37.692 9.756 38.124 9.504 38.592 9.216 39.06 8.928 39.564 8.676 40.032 8.424 40.536 8.172 41.04 7.92 41.544 7.668 42.048 7.452 42.552 7.2 43.056 6.984 43.596 6.768 44.136 6.552 44.64 6.372 45.18 6.156 45.72 5.976 46.296 5.796 46.836 5.616 47.376 5.472 47.952 5.292 48.528 5.148 49.104 5.004 49.644 4.86 50.22 4.752 50.832 4.644 51.408 4.536 51.984 4.428 52.56 4.32 53.172 4.248 53.784 4.176 54.36 4.104 54.972 4.032 55.584 3.996 56.196 3.924 56.772 3.924 57.384 3.888 57.996 3.852 58.644 3.852 59.256 3.852 59.868 3.888 60.48 3.888 61.092 3.924 61.704 3.96 62.352 4.032 62.964 4.068 63.576 4.14 64.224 4.212 64.836 4.32 65.448 4.392 66.096 4.5 66.708 4.608 67.32 4.752 67.968 4.86 68.58 5.004 69.192 5.184 69.804 5.328 70.452 5.508 71.064 5.688 71.676 5.868 72.288 6.084 72.9 6.3 73.512 6.516 74.124 6.732 74.7 6.984 75.312 7.236 75.924 7.488 76.5 7.74 77.112 8.028 77.688 8.316 78.264 8.604 78.876 8.892 79.452 9.216 80.028 9.54 80.568 9.864 81.144 10.188 81.72 10.548 82.26 10.908 82.836 11.268 83.376 11.628 83.916 12.024 84.456 12.42 84.996 12.816 85.5 13.212 86.04 13.608 86.544 14.04 87.048 14.472 87.552 14.904 88.056 15.372 88.56 15.804 89.028 16.272 89.496 16.74 89.964 17.208 90.432 17.712 90.9 18.216 91.332 18.684 91.8 19.188 92.232 19.728 92.664 20.232 93.06 20.772 93.492 21.276 93.888 21.816 94.284 22.356 94.68 22.932 95.04 23.472 95.436 24.048 95.796 24.588 96.156 25.164 96.48 25.74 96.804 26.352 97.164 26.928 97.488 27.504 97.776 28.116 98.1 28.728 98.388 29.304 98.676 29.916 98.928 30.528 99.216 31.176 99.468 31.788 99.72 32.4 99.936 33.048 100.152 33.66 100.368 34.308 100.584 34.956 100.8 35.568 100.98 36.216 101.16 36.864 101.34 37.512 101.484 38.16 101.628 38.808 101.772 39.456 101.916 40.14 102.024 40.788 102.132 41.436 102.24 42.084 102.348 42.768 102.42 43.416 102.492 44.064 102.528 44.748 102.6 45.396 102.636 46.044 102.672 46.728 102.708 47.376 102.708 48.024 102.708 48.708 102.708 49.356 102.672 50.004 102.636 50.688 102.6 51.336 102.564 51.984 102.492 52.632 102.456 53.28 102.384 53.928 102.276 54.576 102.204 55.224 102.096 55.836 101.988 56.484 101.844 57.132 101.7 57.744 101.592 58.392 101.412 59.004 101.268 59.616 101.088 60.264 100.908 60.876 100.728 61.488 100.548 62.1 100.332 62.676 100.116 63.288 99.9 63.864 99.684 64.476 99.432 65.052 99.216 65.628 98.964 66.204 98.676 66.78 98.424 67.356 98.136 67.896 97.884 68.436 97.56 69.012 97.272 69.552 96.984 70.092 96.66 70.596 96.336 71.136 96.012 71.64 95.688 72.18 95.364 72.684 95.004 73.152 94.644 73.656 94.284 74.16 93.924 74.628 93.564 75.096 93.204 75.564 92.808 76.032 92.412 76.464 92.016 76.932 91.62 77.364 91.224 77.796 90.828 78.228 90.396 78.624 90 79.02 89.568 79.452 89.136 79.812 88.704 80.208 88.272 80.604 87.84 80.964 87.408 81.324 86.976 81.684 86.508 82.008 86.076 82.368 85.608 82.692 85.14 83.016 84.708 83.34 84.24 83.628 83.772 83.952 83.304 84.24 82.836 84.528 82.368 84.78 81.9 85.068 81.396 85.32 80.928 85.572 80.46 85.824 79.992 86.04 79.488 86.292 79.02 86.508 78.516 86.724 78.048 86.904 77.58 87.12 77.076 87.3 76.608 87.48 76.104 87.66 75.636 87.84 75.132 87.984 74.664 88.128 74.16 88.272 73.692 88.416 73.224 88.524 72.72 88.668 72.252 88.776 71.748 88.884 71.28 88.992 70.812 89.064 70.344 89.136 69.84 89.244 69.372 89.316 68.904 89.352 68.436 89.424 67.968 89.46 67.5 89.496 67.068 89.532 66.6 89.568 66.132 89.604 65.664 89.604 65.232 89.64 64.764 89.64 64.332 89.64 63.9 89.604 63.432 89.604 63 89.568 62.568 89.568 62.136 89.532 61.704 89.496 61.308 89.46 60.876 89.388 60.444 89.352 60.048 89.28 59.616 89.244 59.22 89.172 58.824 89.1 58.428 89.028 58.032 88.92 57.636 88.848 57.276 88.74 56.88 88.668 56.52 88.56 56.124 88.452 55.764 88.344 55.404 88.236 55.044 88.128 54.684 88.02 54.324 87.876 54 87.768 53.64 87.624 53.316 87.516 52.992 87.372 52.668 87.228 52.344 87.12 52.02 86.976 51.696 86.832 51.408 86.688 51.084 86.508 50.796 86.364 50.508 86.22 50.22 86.076 49.932 85.896 49.644 85.752 49.356 85.608 49.104 85.428 48.816 85.284 48.564 85.104 48.312 84.96 48.06 84.78 47.808 84.636 47.556 84.456 47.34 84.276 47.088 84.132 46.872 83.952 46.656 83.772 46.404 83.628 46.188 83.448 45.972 83.268 45.792 83.124 45.576 82.944 45.36 82.764 45.18 82.62 45 82.44 44.784 82.26 44.604 82.116 44.424 81.936 44.244 81.792 44.064 81.612 43.92 81.432 43.74 81.288 43.596 81.144 43.416 80.964 43.272 80.82 43.128 80.64 42.948 80.496 42.804 80.352 42.66 80.208 42.516 80.028 42.408 79.884 42.264 79.74 42.12 79.596 41.976 79.452 41.868 79.308 41.724 79.164 41.616 79.056 41.508 78.912 41.364 78.768 41.256 78.624 41.148 78.516 41.04 78.372 40.932 78.264 40.824 78.12 40.716 78.012 40.608 77.904 40.5 77.76 40.392 77.652 40.284 77.544 40.176 77.436 40.068 77.328 39.996 77.22 39.888 77.112 39.78 77.04 39.672 76.932 39.6 76.824 39.492 76.752 39.384 76.644 39.312 76.572 39.204 76.464 39.096 76.392 39.024 76.32 38.916 76.212 38.808 76.14 38.7 76.068 38.628 75.996 38.52 75.924 38.412 75.852 38.34 75.78 38.232 75.744 38.124 75.672 38.016 75.6 37.908 75.564 37.8 75.492 37.692 75.42 37.584 75.384 37.476 75.312 37.368 75.276 37.26 75.24 37.152 75.168 37.044 75.132 36.936 75.096 36.828 75.06 36.684 74.988 36.576 74.952 36.432 74.916 36.324 74.88 36.18 74.844 36.072 74.808 35.928 74.772 35.784 74.736 35.676 74.7 35.532 74.664 35.388 74.628 35.244 74.592 35.1 74.556 34.956 74.52 34.776 74.484 34.632 74.484 34.488 74.448 34.308 74.412 34.164 74.376 33.984 74.34 33.84 74.304 33.66 74.268 33.48 74.232 33.3 74.196 33.12 74.16 32.94 74.124 32.76 74.088 32.58 74.052 32.4 73.98 32.184 73.944 32.004 73.908 31.788 73.872 31.608 73.8 31.392 73.764 31.176 73.728 30.996 73.656 30.78 73.62 30.564 73.548 30.348 73.476 30.096 73.44 29.88 73.368 29.664 73.296 29.448 73.224 29.196 73.152 28.98 73.08 28.728 73.008 28.476 72.936 28.26 72.828 28.008 72.756 27.756 72.648 27.504 72.576 27.252 72.468 27 72.36 26.748 72.252 26.496 72.144 26.244 72.036 25.992 71.928 25.704 71.82 25.452 71.676 25.2 71.568 24.912 71.424 24.66 71.28 24.372 71.136 24.12 70.992 23.832 70.848 23.544 70.704 23.292 70.524 23.004 70.38 22.716 70.2 22.464 70.02 22.176 69.84 21.888 69.66 21.6 69.48 21.312 69.264 21.06 69.084 20.772 68.868 20.484 68.652 20.196 68.436 19.908 68.22 19.656 68.004 19.368 67.752 19.08 67.536 18.792 67.284 18.54 67.032 18.252 66.78 17.964 66.528 17.712 66.24 17.424 65.988 17.136 65.7 16.884 65.412 16.596 65.124 16.344 64.836 16.056 64.512 15.804 64.224 15.552 63.9 15.264 63.576 15.012 63.252 14.76 62.928 14.508 62.604 14.256 62.244 14.004 61.92 13.752 61.56 13.536 61.2 13.284 60.84 13.068 60.48 12.816 60.084 12.6 59.688 12.384 59.328 12.168 58.932 11.916 58.536 11.736 58.14 11.52 57.708 11.304 57.312 11.124 56.88 10.908 56.448 10.728 56.016 10.548 55.584 10.368 55.152 10.188 54.72 10.008 54.252 9.864 53.784 9.684 53.352 9.54 52.884 9.396 52.416 9.252 51.948 9.108 51.444 9 50.976 8.856 50.472 8.748 50.004 8.64 49.5 8.532 48.996 8.424 48.492 8.352 47.988 8.244 47.484 8.172 46.944 8.1 46.44 8.064 45.936 7.992 45.396 7.956 44.856 7.92 44.352 7.884 43.812 7.848 43.272 7.812 42.732 7.812 42.192 7.812 41.652 7.812 41.076 7.812 40.536 7.848 39.996 7.884 39.456 7.92 38.88 7.956 38.34 8.028 37.764 8.064 37.224 8.136 36.648 8.208 36.072 8.316 35.532 8.424 34.956 8.496 34.416 8.64 33.84 8.748 33.264 8.892 32.724 9 32.148 9.144 31.572 9.324 31.032 9.468 30.456 9.648 29.88 9.828 29.34 10.044 28.764 10.224 28.188 10.44 27.648 10.656 27.072 10.872 26.532 11.124 25.992 11.376 25.416 11.628 24.876 11.88 24.336 12.132 23.796 12.42 23.256 12.708 22.716 12.996 22.176 13.32 21.636 13.644 21.096 13.968 20.556 14.292 20.052 14.616 19.512 14.976 19.008 15.336 18.504 15.696 18 16.056 17.496 16.452 16.992 16.848 16.488 17.244 15.984 17.64 15.516 18.072 15.012 18.468 14.544 18.9 14.076 19.332 13.608 19.8 13.176 20.232 12.708 20.7 12.276 21.168 11.808 21.636 11.376 22.14 10.944 22.608 10.548 23.112 10.116 23.616 9.72 24.12 9.288 24.66 8.928 25.164 8.532 25.704 8.136 26.244 7.776 26.784 7.416 27.324 7.056 27.9 6.696 28.44 6.336 29.016 6.012 29.592 5.688 30.168 5.364 30.744 5.076 31.356 4.752 31.932 4.464 32.544 4.176 33.156 3.924 33.732 3.636 34.344 3.384 34.992 3.132 35.604 2.88 36.216 2.664 36.864 2.448 37.476 2.232 38.124 2.016 38.772 1.836 39.42 1.656 40.068 1.476 40.716 1.296 41.364 1.152 42.012 1.008 42.66 0.864 43.308 0.756 43.992 0.612 44.64 0.504 45.324 0.432 45.972 0.324 46.656 0.252 47.304 0.18 47.988 0.144 48.672 0.072 49.32 0.036 50.004 0.036 50.688 0 51.336 0 52.02 0 52.704 0 53.352 0.036 54.036 0.072 54.72 0.108 55.368 0.18 56.052 0.216 56.736 0.288 57.384 0.396 58.068 0.468 58.716 0.576 59.364 0.684 60.048 0.828 60.696 0.936 61.344 1.08 61.992 1.26 62.64 1.404 63.288 1.584 63.936 1.764 64.584 1.944 65.232 2.16 65.88 2.376 66.492 2.592 67.104 2.808 67.752 3.06 68.364 3.276 68.976 3.528 69.588 3.816 70.2 4.068 70.776 4.356 71.388 4.644 71.964 4.932 72.576 5.256 73.152 5.58 73.728 5.904 74.304 6.228 74.844 6.552 75.42 6.912 75.96 7.272 76.5 7.632 77.04 7.992 77.58 8.388 78.12 8.748 78.624 9.144 79.128 9.54 79.632 9.972 80.136 10.368 80.64 10.8 81.108 11.232 81.612 11.664 82.08 12.096 82.548 12.528 82.98 12.996 83.448 13.428 83.88 13.896 84.312 14.364 84.744 14.832 85.14 15.336 85.572 15.804 85.968 16.308 86.364 16.776 86.76 17.28 87.12 17.784 87.48 18.288 87.84 18.792 88.2 19.332 88.56 19.836 88.884 20.376 89.208 20.88 89.532 21.42 89.82 21.96 90.144 22.5 90.432 23.04 90.72 23.58 90.972 24.12 91.26 24.66 91.512 25.2 91.764 25.776 91.98 26.316 92.232 26.856 92.448 27.432 92.664 27.972 92.844 28.548 93.06 29.124 93.24 29.664 93.42 30.24 93.564 30.78 93.744 31.356 93.888 31.932 94.032 32.472 94.176 33.048 94.284 33.624 94.392 34.164 94.5 34.74 94.608 35.316 94.716 35.856 94.788 36.432 94.86 37.008 94.932 37.548 94.968 38.124 95.04 38.664 95.076 39.24 95.112 39.78 95.112 40.32 95.148 40.896 95.148 41.436 95.148 41.976 95.148 42.516 95.112 43.056 95.112 43.596 95.076 44.136 95.04 44.676 94.968 45.18 94.932 45.72 94.86 46.224 94.788 46.764 94.716 47.268 94.644 47.772 94.572 48.312 94.464 48.816 94.356 49.284 94.248 49.788 94.14 50.292 94.032 50.796 93.888 51.264 93.744 51.732 93.636 52.236 93.492 52.704 93.312 53.172 93.168 53.604 93.024 54.072 92.844 54.54 92.664 54.972 92.484 55.404 92.304 55.872 92.124 56.304 91.908 56.7 91.728 57.132 91.512 57.564 91.332 57.96 91.116 58.356 90.9 58.788 90.684 59.184 90.468 59.544 90.216 59.94 90 60.3 89.748 60.696 89.532 61.056 89.28 61.416 89.028 61.776 88.812 62.136 88.56 62.46 88.308 62.82 88.02 63.144 87.768 63.468 87.516 63.792 87.264 64.116 87.012 64.404 86.724 64.728 86.472 65.016 86.184 65.304 85.932 65.592 85.644 65.88 85.356 66.132 85.104 66.42 84.816 66.672 84.528 66.924 84.276 67.176 83.988 67.428 83.7 67.68 83.412 67.896 83.16 68.148 82.872 68.364 82.584 68.58 82.296 68.796 82.008 68.976 81.756 69.192 81.468 69.408 81.18 69.588 80.892 69.768 80.604 69.948 80.352 70.128 80.064 70.308 79.776 70.452 79.524 70.632 79.236 70.776 78.948 70.956 78.696 71.1 78.408 71.244 78.156 71.388 77.868 71.496 77.616 71.64 77.364 71.748 77.076 71.892 76.824 72 76.572 72.108 76.32 72.216 76.068 72.324 75.816 72.432 75.564 72.54 75.312 72.612 75.06 72.72 74.808 72.792 74.556 72.9 74.34 72.972 74.088 73.044 73.836 73.116 73.62 73.188 73.404 73.26 73.152 73.332 72.936 73.404 72.72 73.476 72.504 73.512 72.288 73.584 72.072 73.656 71.856 73.692 71.64 73.764 71.424 73.8 71.244 73.836 71.028 73.908 70.848 73.944 70.632 73.98 70.452 74.016 70.272 74.052 70.092 74.088 69.912 74.124 69.732 74.196 69.552 74.232 69.372 74.268 69.192 74.268 69.012 74.304 68.868 74.34 68.688 74.376 68.544 74.412 68.364 74.448 68.22 74.484 68.076 74.52 67.932 74.556 67.788 74.592 67.644 74.628 67.5 74.664 67.356 74.7 67.212 74.736 67.068 74.772 66.96 74.808 66.816 74.844 66.672 74.88 66.564 74.916 66.42 74.952 66.312 74.988 66.204 75.024 66.06 75.06 65.952 75.132 65.844 75.168 65.736 75.204 65.628 75.276 65.52 75.312 65.412 75.348 65.304 75.42 65.196 75.456 65.088 75.528 64.98 75.6 64.872 75.636 64.764 75.708 64.692 75.78 64.584 75.852 64.476 75.888 64.368 75.96 64.296 76.032 64.188 76.104 64.08 76.212 63.972 76.284 63.9 76.356 63.792 76.428 63.684 76.536 63.612 76.608 63.504 76.716 63.396 76.788 63.324 76.896 63.216 77.004 63.108 77.076 63.036 77.184 62.928 77.292 62.82 77.4 62.712 77.508 62.604 77.616 62.496 77.724 62.424 77.832 62.316 77.976 62.208 78.084 62.1 78.192 61.956 78.336 61.848 78.444 61.74 78.588 61.632 78.732 61.524 78.84 61.38 78.984 61.272 79.128 61.128 79.272 61.02 79.416 60.876 79.56 60.768 79.704 60.624 79.848 60.48 79.992 60.336 80.136 60.192 80.28 60.048 80.424 59.904 80.604 59.76 80.748 59.616 80.892 59.436 81.072 59.292 81.216 59.112 81.396 58.932 81.54 58.788 81.72 58.608 81.864 58.428 82.044 58.248 82.224 58.032 82.368 57.852 82.548 57.672 82.692 57.456 82.872 57.276 83.052 57.06 83.196 56.844 83.376 56.628 83.556 56.412 83.7 56.196 83.88 55.944 84.06 55.728 84.204 55.476 84.384 55.224 84.564 55.008 84.708 54.756 84.888 54.504 85.032 54.216 85.212 53.964 85.356 53.712 85.536 53.424 85.68 53.136 85.86 52.848 86.004 52.56 86.148 52.272 86.328 51.984 86.472 51.696 86.616 51.372 86.76 51.048 86.904 50.76 87.048 50.436 87.192 50.112 87.336 49.788 87.444 49.428 87.588 49.104 87.732 48.744 87.84 48.42 87.948 48.06 88.092 47.7 88.2 47.34 88.308 46.98 88.416 46.584 88.524 46.224 88.632 45.864 88.704 45.468 88.812 45.072 88.884 44.676 88.992 44.28 89.064 43.884 89.136 43.488 89.208 43.092 89.28 42.66 89.316 42.264 89.388 41.832 89.424 41.4 89.46 40.968 89.532 40.572 89.532 40.14 89.568 39.672 89.604 39.24 89.604 38.808 89.64 38.376 89.64 37.908 89.64 37.476 89.604 37.008 89.604 36.54 89.568 36.072 89.568 35.64 89.532 35.172 89.496 34.704 89.424 34.236 89.388 33.768 89.316 33.3 89.244 32.796 89.172 32.328 89.1 31.86 89.028 31.392 88.92 30.888 88.812 30.42 88.704 29.952 88.596 29.448 88.452 28.98 88.344 28.476 88.2 28.008 88.056 27.504 87.876 27.036 87.732 26.568 87.552 26.064 87.372 25.596 87.192 25.092 87.012 24.624 86.796 24.12 86.58 23.652 86.364 23.184 86.148 22.68 85.896 22.212 85.68 21.744 85.428 21.24 85.176 20.772 84.888 20.304 84.636 19.836 84.348 19.368 84.06 18.9 83.772 18.432 83.448 17.964 83.16 17.532 82.836 17.064 82.512 16.632 82.152 16.164 81.828 15.732 81.468 15.264 81.108 14.832 80.748 14.4 80.352 13.968 79.992 13.536 79.596 13.14 79.2 12.708 78.768 12.312 78.372 11.88 77.94 11.484 77.508 11.088 77.076 10.692 76.644 10.296 76.212 9.936 75.744 9.54 75.276 9.18 74.808 8.82 74.34 8.46 73.836 8.1 73.368 7.74 72.864 7.416 72.36 7.056 71.856 6.732 71.352 6.408 70.812 6.12 70.272 5.796 69.768 5.508 69.228 5.22 68.652 4.932 68.112 4.644 67.572 4.356 66.996 4.104 66.42 3.852 65.844 3.6 65.268 3.384 64.692 3.132 64.116 2.916 63.504 2.7 62.928 2.484 62.316 2.304 61.704 2.124 61.092 1.944 60.48 1.764 59.868 1.584 59.256 1.44 58.644 1.296 57.996 1.152 57.384 1.044 56.736 0.936 56.088 0.828 55.476 0.72 54.828 0.612 54.18 0.54 53.532 0.468 52.884 0.432 52.236 0.36 51.588 0.324 50.94 0.288 50.256 0.288 49.608 0.252 48.96 0.252 48.312 0.252 47.628 0.288 46.98 0.324 46.332 0.36 45.648 0.396 45 0.468 44.352 0.504 43.668 0.612 43.02 0.684 42.372 0.792 41.688 0.9 41.04 1.008 40.392 1.116 39.744 1.26 39.06 1.404 38.412 1.584 37.764 1.728 37.116 1.908 36.468 2.088 35.82 2.304 35.208 2.484 34.56 2.7 33.912 2.916 33.3 3.168 32.652 3.42 32.04 3.672 31.392 3.924 30.78 4.176 30.168 4.464 29.556 4.752 28.944 5.076 28.332 5.364 27.756 5.688 27.144 6.012 26.568 6.336 25.992 6.696 25.416 7.02 24.84 7.38 24.264 7.776 23.688 8.136 23.148 8.532 22.572 8.928 22.032 9.324 21.492 9.72 20.952 10.152 20.448 10.584 19.908 11.016 19.404 11.448 18.9 11.88 18.396 12.348 17.892 12.816 17.424 13.284 16.92 13.752 16.452 14.22 15.984 14.724 15.552 15.192 15.084 15.696 14.652 16.2 14.22 16.74 13.788 17.244 13.356 17.784 12.96 18.288 12.564 18.828 12.168 19.368 11.772 19.908 11.412 20.484 11.052 21.024 10.692 21.6 10.332 22.14 9.972 22.716 9.648 23.292 9.324 23.868 9 24.444 8.712 25.056 8.424 25.632 8.136 26.208 7.848 26.82 7.56 27.396 7.308 28.008 7.056 28.62 6.84 29.232 6.588 29.844 6.372 30.456 6.156 31.068 5.94 31.68 5.76 32.292 5.58 32.904 5.4 33.516 5.22 34.128 5.076 34.776 4.932 35.388 4.788 36 4.68 36.648 4.536 37.26 4.428 37.872 4.356 38.52 4.248 39.132 4.176 39.744 4.104 40.356 4.032 41.004 3.996 41.616 3.924 42.228 3.924 42.876 3.888 43.488 3.852 44.1 3.852 44.712 3.852 45.324 3.888 45.936 3.888 46.548 3.924 47.16 3.96 47.772 3.996 48.348 4.068 48.96 4.14 49.572 4.212 50.148 4.284 50.76 4.392 51.336 4.464 51.912 4.572 52.488 4.716 53.064 4.824 53.64 4.968 54.216 5.076 54.792 5.256 55.368 5.4 55.908 5.544 56.448 5.724 57.024 5.904 57.564 6.084 58.104 6.264 58.644 6.48 59.148 6.696 59.688 6.912 60.192 7.128 60.732 7.344 61.236 7.596 61.74 7.812 62.244 8.064 62.712 8.316 63.216 8.568 63.684 8.82 64.188 9.108 64.656 9.396 65.124 9.648 65.556 9.936 66.024 10.224 66.456 10.548 66.888 10.836 67.32 11.124 67.752 11.448 68.184 11.772 68.58 12.096 69.012 12.42 69.408 12.744 69.804 13.068 70.2 13.392 70.56 13.752 70.956 14.076 71.316 14.436 71.676 14.796 72.036 15.156 72.36 15.516 72.72 15.876 73.044 16.236 73.368 16.596 73.692 16.956 73.98 17.316 74.304 17.712 74.592 18.072 74.88 18.432 75.168 18.828 75.456 19.188 75.708 19.584 75.996 19.98 76.248 20.34 76.5 20.736 76.752 21.132 76.968 21.492 77.22 21.888 77.436 22.284 77.652 22.68 77.868 23.076 78.048 23.436 78.264 23.832 78.444 24.228 78.624 24.624 78.804 24.984 78.984 25.38 79.128 25.776 79.308 26.172 79.452 26.532 79.596 26.928 79.74 27.324 79.848 27.684 79.992 28.08 80.1 28.476 80.208 28.836 80.352 29.232 80.424 29.592 80.532 29.952 80.64 30.348 80.712 30.708 80.784 31.068 80.892 31.428 80.964 31.824 81 32.184 81.072 32.544 81.144 32.868 81.18 33.228 81.216 33.588 81.288 33.948 81.324 34.272 81.36 34.632 81.36 34.956 81.396 35.316 81.432 35.64 81.432 35.964 81.432 36.288 81.468 36.612 81.468 36.936 81.468 37.26 81.468 37.584 81.432 37.908 81.432 38.196 81.432 38.52 81.396 38.808 81.396 39.096 81.36 39.42 81.36 39.708 81.324 39.996 81.288 40.248 81.252 40.536 81.216 40.824 81.18 41.112 81.144 41.364 81.108 41.616 81.072 41.904 81 42.156 80.964 42.408 80.928 42.66 80.856 42.912 80.82 43.164 80.784 43.38 80.712 43.632 80.676 43.848 80.604 44.1 80.568 44.316 80.496 44.532 80.424 44.748 80.388 44.964 80.316 45.18 80.244 45.396 80.208 45.576 80.136 45.792 80.064 46.008 80.028 46.188 79.956 46.368 79.884 46.584 79.848 46.764 79.776 46.944 79.74 47.124 79.668 47.304 79.596 47.448 79.56 47.628 79.488 47.808 79.452 47.952 79.38 48.132 79.344 48.276 79.272 48.456 79.236 48.6 79.2 48.744 79.128 48.888 79.092 49.032 79.056 49.176 78.984 49.32 78.948 49.464 78.912 49.608 78.876 49.752 78.84 49.896 78.804 50.04 78.768 50.148 78.732 50.292 78.696 50.4 78.66 50.544 78.66 50.688 78.624 50.796 78.588 50.94 78.588 51.048 78.552 51.156 78.552 51.3 78.516 51.408 78.516 51.516 78.516 51.66 78.48 51.768 78.48 51.876 78.48 52.02 78.48 52.128" stroke="#7B61C1" stroke-width="3.24" stroke-linecap="butt" stroke-linejoin="miter" stroke-miterlimit="4" stroke-opacity="1" fill="none" fill-rule="evenodd" transform="matrix(1.00151 0 0 1 731.442 98.8)"/></g></g></g></g></svg>