<svg xmlns="http://www.w3.org/2000/svg" viewBox="0.0280003 0.204431 24 21">
  <path d="M12.029 13.03a2.334 2.334 0 002.343-2.325 2.334 2.334 0 00-2.343-2.326 2.334 2.334 0 00-2.343 2.325 2.334 2.334 0 002.343 2.326zM18.88 1.794c-.16-.74-.466-1.183-.851-1.404-.385-.22-.926-.262-1.65-.03-.725.234-1.571.723-2.485 1.46-.35.283-.708.6-1.068.947a27.206 27.206 0 012.225 2.743c1.246.114 2.424.298 3.505.54.123-.483.221-.948.293-1.391.186-1.154.19-2.125.03-2.865zM10.163 1.82c.351.283.708.6 1.068.947A27.215 27.215 0 009.007 5.51a27.564 27.564 0 00-3.506.54c-.123-.483-.22-.948-.292-1.391-.186-1.153-.19-2.125-.031-2.865.16-.74.466-1.183.85-1.403C6.415.17 6.955.128 7.68.36s1.57.722 2.484 1.459zM19.354 7.421a27.05 27.05 0 01-1.281 3.284 27.04 27.04 0 011.28 3.283c.484-.136.939-.284 1.361-.444 1.1-.417 1.95-.9 2.515-1.406.566-.507.8-.992.8-1.433 0-.442-.234-.927-.8-1.434-.565-.506-1.415-.988-2.515-1.405-.422-.16-.877-.309-1.36-.445zM15.05 15.9a27.207 27.207 0 01-2.224 2.742c.36.348.718.664 1.069.947.913.737 1.759 1.227 2.483 1.46.725.232 1.266.19 1.65-.03.386-.221.693-.665.852-1.404.16-.74.155-1.711-.031-2.864-.072-.444-.17-.909-.293-1.392a27.56 27.56 0 01-3.505.54zM9.007 15.9a27.21 27.21 0 002.224 2.742c-.36.348-.717.664-1.068.947-.913.737-1.759 1.227-2.484 1.46-.725.232-1.265.19-1.65-.03-.385-.221-.692-.665-.851-1.404-.16-.74-.155-1.711.031-2.864.071-.444.17-.909.292-1.392a27.56 27.56 0 003.506.54zM4.704 13.988c.329-1.05.758-2.155 1.28-3.283a27.043 27.043 0 01-1.28-3.284c-.483.136-.938.285-1.36.445-1.1.417-1.95.899-2.516 1.405-.565.507-.8.992-.8 1.434 0 .441.235.926.8 1.433.566.507 1.416.989 2.515 1.405.423.16.877.31 1.36.445z" fill="#61DAFB"/>
</svg>